<svg width="152" height="176" viewBox="0 0 152 176" fill="none" xmlns="http://www.w3.org/2000/svg">
    <path d="M130.944 20.5276L18.4842 19.1976C16.039 19.1687 14.0617 20.9697 14.0622 23.2254L14.0913 159.187C14.0918 161.452 16.0864 163.317 18.5422 163.349L132.143 164.792C134.603 164.824 136.589 163.003 136.569 160.733L135.398 24.6576C135.379 22.4028 133.388 20.5565 130.944 20.5276Z" fill="#244E78"/>
    <path d="M127.523 24.1236L21.5284 22.6972C19.0742 22.6642 17.0882 24.4712 17.0912 26.7345L17.2628 154.19C17.2659 156.464 19.2764 158.333 21.7429 158.354L129.336 159.248C131.801 159.268 133.78 157.436 133.748 155.163L131.979 28.2394C131.947 25.9919 129.96 24.1564 127.523 24.1236Z" fill="#333E49"/>
    <g filter="url(#filter0_i_81_23)">
        <path d="M31.3605 147.726L30.3425 33.5309L125.606 33.2523L126.834 149.384L31.3605 147.726Z" fill="#F9F8F6"/>
    </g>
    <g filter="url(#filter1_i_81_23)">
        <path d="M24.4833 144.964L22.6127 39.1634L117.802 39.6172L119.897 147.213L24.4833 144.964Z" fill="#F9F8F6"/>
    </g>
    <g filter="url(#filter2_i_81_23)">
        <path d="M29.5203 127.675L26.3479 33.6645L122.211 35.227L125.632 130.835L29.5203 127.675Z" fill="#F9F8F6"/>
    </g>
    <g filter="url(#filter3_i_81_23)">
        <path d="M74.1443 16.4815C74.1979 25.3341 74.2887 43.201 74.2231 43.8477L34.2458 43.4622C34.3342 38.5712 36.6834 35.5432 39.1147 31.7068C41.546 27.8705 57.0684 27.8138 60.0207 26.8886C62.9729 25.9634 60.8417 18.8054 61.0469 16.7845C61.2013 15.2643 65.7499 15.5143 68.4089 15.8778C68.1868 15.4103 67.9186 14.3286 67.643 12.1461C67.1 7.8444 72.0063 6.19216 74.3513 5.88589L74.105 8.31082C72.824 8.86132 69.9416 10.4197 70.068 12.3924C70.1942 14.3653 72.8381 15.9405 74.1443 16.4815Z" fill="#9A9AA2"/>
        <path d="M74.0922 16.4762C73.9246 25.3274 74.1136 43.195 74.171 43.8424L113.924 44.2855C113.898 39.3937 111.588 36.3357 109.207 32.4683C106.825 28.601 91.3046 28.3445 88.3644 27.3815C85.4243 26.4184 87.6475 19.2883 87.4683 17.265C87.3334 15.7429 82.7821 15.9344 80.1186 16.2636C80.3467 15.799 80.6288 14.7209 80.9324 12.5422C81.5308 8.24772 76.692 6.2223 74.3512 5.88587L74.1048 8.31082C75.3785 8.87778 78.6562 10.7862 78.5046 12.7573C78.3529 14.7283 75.4052 15.952 74.0922 16.4762Z" fill="#C2C2CA"/>
    </g>
    <path d="M26.7794 53.3366L122.273 54.0338L122.086 70.2908L26.9542 69.1736L26.7794 53.3366Z" fill="#2C77C2"/>
    <rect x="30" y="79" width="92" height="12" fill="#3D3D3D"/>
    <rect x="30" y="108" width="92" height="12" fill="#484848"/>
    <defs>
        <filter id="filter0_i_81_23" x="30.3425" y="33.2523" width="96.4912" height="120.131" filterUnits="userSpaceOnUse" color-interpolation-filters="sRGB">
            <feFlood flood-opacity="0" result="BackgroundImageFix"/>
            <feBlend mode="normal" in="SourceGraphic" in2="BackgroundImageFix" result="shape"/>
            <feColorMatrix in="SourceAlpha" type="matrix" values="0 0 0 0 0 0 0 0 0 0 0 0 0 0 0 0 0 0 127 0" result="hardAlpha"/>
            <feOffset dy="4"/>
            <feGaussianBlur stdDeviation="2"/>
            <feComposite in2="hardAlpha" operator="arithmetic" k2="-1" k3="1"/>
            <feColorMatrix type="matrix" values="0 0 0 0 0 0 0 0 0 0 0 0 0 0 0 0 0 0 0.25 0"/>
            <feBlend mode="normal" in2="shape" result="effect1_innerShadow_81_23"/>
        </filter>
        <filter id="filter1_i_81_23" x="22.6128" y="39.1634" width="97.2837" height="112.05" filterUnits="userSpaceOnUse" color-interpolation-filters="sRGB">
            <feFlood flood-opacity="0" result="BackgroundImageFix"/>
            <feBlend mode="normal" in="SourceGraphic" in2="BackgroundImageFix" result="shape"/>
            <feColorMatrix in="SourceAlpha" type="matrix" values="0 0 0 0 0 0 0 0 0 0 0 0 0 0 0 0 0 0 127 0" result="hardAlpha"/>
            <feOffset dy="4"/>
            <feGaussianBlur stdDeviation="2"/>
            <feComposite in2="hardAlpha" operator="arithmetic" k2="-1" k3="1"/>
            <feColorMatrix type="matrix" values="0 0 0 0 0 0 0 0 0 0 0 0 0 0 0 0 0 0 0.25 0"/>
            <feBlend mode="normal" in2="shape" result="effect1_innerShadow_81_23"/>
        </filter>
        <filter id="filter2_i_81_23" x="26.3479" y="33.6645" width="99.2837" height="101.17" filterUnits="userSpaceOnUse" color-interpolation-filters="sRGB">
            <feFlood flood-opacity="0" result="BackgroundImageFix"/>
            <feBlend mode="normal" in="SourceGraphic" in2="BackgroundImageFix" result="shape"/>
            <feColorMatrix in="SourceAlpha" type="matrix" values="0 0 0 0 0 0 0 0 0 0 0 0 0 0 0 0 0 0 127 0" result="hardAlpha"/>
            <feOffset dy="4"/>
            <feGaussianBlur stdDeviation="2"/>
            <feComposite in2="hardAlpha" operator="arithmetic" k2="-1" k3="1"/>
            <feColorMatrix type="matrix" values="0 0 0 0 0 0 0 0 0 0 0 0 0 0 0 0 0 0 0.25 0"/>
            <feBlend mode="normal" in2="shape" result="effect1_innerShadow_81_23"/>
        </filter>
        <filter id="filter3_i_81_23" x="33.2458" y="4.88588" width="80.678" height="39.3996" filterUnits="userSpaceOnUse" color-interpolation-filters="sRGB">
            <feFlood flood-opacity="0" result="BackgroundImageFix"/>
            <feBlend mode="normal" in="SourceGraphic" in2="BackgroundImageFix" result="shape"/>
            <feColorMatrix in="SourceAlpha" type="matrix" values="0 0 0 0 0 0 0 0 0 0 0 0 0 0 0 0 0 0 127 0" result="hardAlpha"/>
            <feOffset dx="-1" dy="-1"/>
            <feGaussianBlur stdDeviation="1"/>
            <feComposite in2="hardAlpha" operator="arithmetic" k2="-1" k3="1"/>
            <feColorMatrix type="matrix" values="0 0 0 0 0 0 0 0 0 0 0 0 0 0 0 0 0 0 0.25 0"/>
            <feBlend mode="normal" in2="shape" result="effect1_innerShadow_81_23"/>
        </filter>
    </defs>
</svg>
