<svg width="32" height="35" viewBox="0 0 32 35" fill="none" xmlns="http://www.w3.org/2000/svg">
    <path d="M25.891 30.1839C25.3606 29.6535 25.3605 29.123 25.891 28.5926C26.4216 28.0621 27.4824 28.0621 28.0129 28.5926C28.5434 29.123 28.5433 29.6535 28.0129 30.1839C27.4825 30.7144 26.4215 30.7144 25.891 30.1839Z" fill="black"/>
    <path d="M9.97746 34.4277C9.447 33.8972 9.44694 33.3667 9.97746 32.8363C10.508 32.3058 11.5689 32.3058 12.0993 32.8363C12.6298 33.3667 12.6297 33.8972 12.0993 34.4277C11.5689 34.9581 10.5079 34.9581 9.97746 34.4277Z" fill="black"/>
    <path d="M0.42912 27.0012C-0.101344 26.4707 -0.101402 25.9402 0.42912 25.4098C0.959641 24.8793 2.02051 24.8793 2.55098 25.4098C3.08144 25.9402 3.08138 26.4707 2.55098 27.0012C2.02057 27.5316 0.959584 27.5316 0.42912 27.0012Z" fill="black"/>
    <path d="M17.5364 23.4205C17.4741 22.8472 17.1827 21.4755 18.0668 20.7682C18.0668 20.2378 12.7622 21.2987 12.7622 21.8291V25.0119C12.7622 25.8607 11.8781 27.3106 11.7013 27.6643C11.1708 28.902 10.1099 31.5897 10.1099 32.4384C10.1099 33.4994 10.6403 33.4994 11.7013 33.4994C12.7622 33.4994 12.4267 30.2621 12.7622 29.2557C13.2926 27.6642 14.3536 25.5424 15.4145 25.0119C16.2632 24.5876 22.6642 28.0179 25.4933 29.2556C26.0238 29.2556 26.6603 28.7252 27.0847 28.7252C27.6152 28.7252 28.1456 28.7252 28.1456 28.1947C28.1456 27.1338 17.5986 23.9939 17.5364 23.4205Z" fill="#777777"/>
    <path d="M7.98802 23.951C9.68551 23.951 10.1099 22.8901 10.1099 22.3596L12.7622 21.8291C12.7622 23.2437 13.2927 24.4815 12.7622 25.0119C12.7622 25.0119 7.45756 25.5424 5.86616 25.5424C4.27477 25.5424 2.68338 26.0728 1.62245 26.0728C0.773709 26.0728 0.561523 25.3656 0.561523 25.0119C1.26881 24.8351 2.78947 24.4815 3.21384 24.4815C3.74431 24.4815 5.86616 23.951 7.98802 23.951Z" fill="#3F3F3F"/>
    <path d="M1.09218 18.6463C0.03125 17.5854 0.384893 16.1708 0.03125 15.4636L6.92728 11.2198C11.5246 12.104 20.295 12.8112 20.7194 12.8112C21.2498 12.8112 23.3717 14.4026 23.9021 15.4636C24.4326 16.5245 23.3717 18.1159 23.3717 18.6463C23.3717 19.1768 15.4147 22.3596 12.7624 22.8901C10.6405 23.3144 2.15311 19.7073 1.09218 18.6463Z" fill="#1D1D1D"/>
    <path d="M0.0313371 15.4636C-0.499127 14.4026 5.86619 10.6894 6.92712 10.6894C7.98804 10.6894 18.5975 12.2808 20.1888 12.8112C21.7802 13.3417 23.1594 15.3575 22.3107 17.055C21.2498 19.1768 13.8233 20.7682 9.57954 20.2377C6.18457 19.8134 0.561801 16.5245 0.0313371 15.4636Z" fill="#020202"/>
    <path d="M18.5973 20.7682C19.4461 20.7682 25.6702 16.8781 28.6762 14.9331C30.7983 13.5787 32.3892 0.610582 29.7369 0.0801102C27.0845 -0.450362 22.3106 1.6715 18.5973 5.91521C14.8841 10.1589 17.5364 20.7682 18.5973 20.7682Z" fill="#1F1F1F"/>
    <path d="M22.3103 21.8291C21.886 21.8291 20.7189 20.7682 20.1885 20.2377C21.0726 19.8841 22.8408 19.0707 22.8408 18.6463C22.8408 18.222 23.1944 16.3477 23.3713 15.4636C22.664 15.6404 21.1433 15.8879 20.7189 15.4636C20.1885 14.9331 20.7189 9.09799 21.2494 8.03706C21.7799 6.97613 28.1454 3.79335 28.6759 3.79335C29.1003 3.79335 29.7368 9.09799 28.6759 12.2808L27.0845 13.3417C26.9077 13.5185 26.554 13.9783 26.554 14.4026C26.554 14.9331 26.554 18.1159 26.0236 19.1768C25.4931 20.2377 25.4931 20.2377 24.9627 20.7682C24.4322 21.2987 22.8408 21.8291 22.3103 21.8291Z" fill="#757575"/>
    <path d="M27.6152 6.97614L22.3105 9.62846V12.2808L27.6152 9.62846V6.97614Z" fill="#969696"/>
</svg>
