<svg width="29" height="22" viewBox="0 0 29 22" fill="none" xmlns="http://www.w3.org/2000/svg">
    <path d="M13.4027 1.90319L2.08004 9.19336C1.83385 9.35187 1.81274 9.62738 2.03283 9.80952L15.2987 20.7877C15.5197 20.9706 15.9001 20.99 16.1476 20.831L27.595 13.475C27.8428 13.3157 27.8629 13.038 27.6396 12.856L14.249 1.94371C14.0271 1.76288 13.6488 1.74476 13.4027 1.90319Z" fill="#244E78"/>
    <path d="M13.4131 2.41859L2.72441 9.27573C2.47693 9.4345 2.45554 9.71107 2.67662 9.89365L15.1269 20.1755C15.349 20.359 15.7314 20.3777 15.9789 20.2171L26.7747 13.2118C27.0221 13.0514 27.0403 12.7732 26.8154 12.5917L14.258 2.4579C14.0356 2.2785 13.6588 2.26094 13.4131 2.41859Z" fill="#333E49"/>
    <g filter="url(#filter0_i_82_81)">
        <path d="M15.8994 18.7262L4.65839 9.57086L14.1127 3.28195L25.5634 12.5798L15.8994 18.7262Z" fill="#F9F8F6"/>
    </g>
    <g filter="url(#filter1_i_82_81)">
        <path d="M14.9455 18.9555L4.43859 10.5342L13.9569 4.30936L24.6613 12.8609L14.9455 18.9555Z" fill="#F9F8F6"/>
    </g>
    <g filter="url(#filter2_i_82_81)">
        <path d="M13.7602 17.2279L4.27385 9.84441L13.9674 3.66474L23.6343 11.1609L13.7602 17.2279Z" fill="#F9F8F6"/>
    </g>
    <g filter="url(#filter3_i_82_81)">
        <path d="M7.35475 5.31268C8.22365 6.02408 9.97559 7.46102 10.0321 7.51756L6.01564 10.1161C5.54733 9.71533 5.48576 9.31626 5.35351 8.8465C5.22126 8.37675 6.76066 7.35111 6.96424 7.0822C7.16783 6.81328 6.25744 6.3754 6.08074 6.1987C5.94781 6.06577 6.42491 5.78675 6.72502 5.6412C6.65731 5.61806 6.52509 5.54834 6.28477 5.39021C5.81109 5.07853 6.13824 4.62236 6.34176 4.44337L6.55379 4.65541C6.48 4.78413 6.34513 5.09959 6.55015 5.25059C6.75517 5.40161 7.17197 5.35491 7.35475 5.31268Z" fill="#9A9AA2"/>
        <path d="M7.34911 5.31572C8.19585 6.04156 9.95763 7.47209 10.0265 7.52061L14.0263 4.94145C13.5465 4.54808 13.0183 4.45307 12.404 4.29741C11.7897 4.14175 10.22 5.14196 9.8334 5.25759C9.44683 5.37322 8.97257 4.65116 8.75736 4.49955C8.59546 4.3855 8.16116 4.70034 7.92817 4.90214C7.90556 4.84961 7.82846 4.74399 7.64615 4.54806C7.28679 4.16189 6.6076 4.31661 6.34181 4.44342L6.55383 4.65547C6.73591 4.61747 7.2483 4.55598 7.42549 4.72514C7.60266 4.89429 7.42865 5.18702 7.34911 5.31572Z" fill="#C2C2CA"/>
    </g>
    <path d="M6.23563 11.4048L15.808 5.17952L17.3752 6.50472L7.79792 12.6722L6.23563 11.4048Z" fill="#2C77C2"/>
    <path d="M8.75302 11.5738L8.0847 11.0154L8.31026 10.8643C8.35522 10.8342 8.40033 10.816 8.44563 10.8099C8.49071 10.8036 8.53387 10.807 8.57513 10.82C8.61618 10.8327 8.65301 10.8528 8.68565 10.88C8.71437 10.904 8.73314 10.9272 8.74198 10.9494C8.75103 10.9715 8.75301 10.9925 8.74793 11.0122C8.74305 11.0319 8.73398 11.0501 8.72071 11.0668L8.72724 11.0723C8.74829 11.0601 8.77532 11.0528 8.80833 11.0504C8.84133 11.0479 8.87674 11.0524 8.91455 11.0637C8.95235 11.0751 8.98888 11.0955 9.02413 11.1249C9.05764 11.1529 9.08041 11.183 9.09247 11.2152C9.10453 11.2474 9.10253 11.2807 9.08648 11.3151C9.07042 11.3494 9.03698 11.3836 8.98616 11.4176L8.75302 11.5738ZM8.75935 11.4615L8.91436 11.3576C8.9654 11.3235 8.99141 11.2906 8.99237 11.2592C8.99335 11.2274 8.97914 11.1993 8.94977 11.1747C8.92715 11.1558 8.9007 11.1421 8.87042 11.1336C8.83992 11.1249 8.80863 11.1226 8.77651 11.1267C8.74418 11.1307 8.71394 11.1421 8.6858 11.161L8.52701 11.2674L8.75935 11.4615ZM8.45653 11.2085L8.60145 11.1114C8.62497 11.0956 8.64139 11.0774 8.65072 11.0567C8.66027 11.0359 8.66191 11.0145 8.65563 10.9925C8.64958 10.9704 8.63479 10.9495 8.61129 10.9299C8.58193 10.9053 8.54714 10.8911 8.50695 10.8873C8.46653 10.8832 8.42491 10.8955 8.38206 10.9243L8.23462 11.023L8.45653 11.2085ZM9.3565 11.1695L9.27458 11.2244L8.84317 10.5072L8.92383 10.4532L9.82907 10.8529L9.74716 10.9078L8.99176 10.5669L8.98671 10.5702L9.3565 11.1695ZM9.12568 10.9311L9.45586 10.7099L9.52764 10.7699L9.19747 10.9911L9.12568 10.9311ZM9.92958 10.7856L9.26125 10.2271L9.33938 10.1748L9.93591 10.6732L10.2358 10.4723L10.3076 10.5323L9.92958 10.7856ZM10.4958 10.4062L10.4139 10.4611L9.98248 9.74393L10.0631 9.68989L10.9684 10.0896L10.8865 10.1445L10.1311 9.80357L10.126 9.80694L10.4958 10.4062ZM10.265 10.1678L10.5952 9.9466L10.667 10.0066L10.3368 10.2278L10.265 10.1678ZM10.9122 9.12104L11.5805 9.67947L11.5049 9.73012L10.6286 9.52723L10.6223 9.53146L11.147 9.96991L11.0689 10.0223L10.4006 9.46382L10.4762 9.41316L11.3551 9.61631L11.3614 9.61209L10.8353 9.17254L10.9122 9.12104ZM11.7966 8.84294L11.7185 8.89529C11.6906 8.87894 11.662 8.86727 11.6329 8.86028C11.6039 8.85316 11.5752 8.85008 11.5469 8.85106C11.5185 8.85172 11.4914 8.85611 11.4656 8.86425C11.4398 8.87239 11.4161 8.88363 11.3947 8.89799C11.3556 8.92415 11.3305 8.95641 11.3192 8.99476C11.3082 9.03295 11.3132 9.07494 11.3343 9.12073C11.3556 9.16638 11.3952 9.21338 11.4531 9.26173C11.511 9.31009 11.5691 9.3447 11.6274 9.36558C11.6859 9.38633 11.7411 9.39468 11.793 9.39067C11.8452 9.38651 11.8908 9.37134 11.9299 9.34517C11.9513 9.33082 11.9688 9.31448 11.9825 9.29616C11.9962 9.27784 12.0051 9.25827 12.0093 9.23744C12.0135 9.21628 12.0125 9.19454 12.0062 9.17221C11.9999 9.14957 11.9875 9.12707 11.9691 9.1047L12.0472 9.05236C12.0755 9.08484 12.0953 9.11755 12.1068 9.1505C12.1182 9.18346 12.1218 9.21558 12.1177 9.24688C12.1133 9.27799 12.1016 9.30728 12.0826 9.33473C12.0638 9.36205 12.0382 9.38661 12.0056 9.40843C11.9506 9.44529 11.8877 9.46645 11.817 9.47189C11.7463 9.47733 11.673 9.46682 11.5971 9.44039C11.5212 9.41396 11.448 9.37129 11.3775 9.31239C11.307 9.25349 11.2584 9.19437 11.2316 9.135C11.2048 9.07563 11.199 9.01996 11.214 8.96799C11.229 8.91602 11.264 8.87159 11.319 8.83472C11.3516 8.81291 11.387 8.79653 11.4254 8.78558C11.4639 8.77447 11.5042 8.76909 11.5463 8.76943C11.5881 8.76958 11.6302 8.77572 11.6728 8.78785C11.7151 8.7998 11.7563 8.81816 11.7966 8.84294ZM12.3823 9.14228L11.714 8.58385L12.1034 8.32295L12.1752 8.38294L11.8639 8.59149L12.0897 8.78017L12.3809 8.58514L12.4526 8.64512L12.1615 8.84016L12.3887 9.02994L12.705 8.81802L12.7768 8.87801L12.3823 9.14228ZM13.0137 7.96463C12.9768 7.93953 12.9358 7.92835 12.8907 7.9311C12.8455 7.93384 12.8034 7.9483 12.7643 7.97447C12.7358 7.99361 12.7156 8.01436 12.7037 8.03671C12.6921 8.05892 12.6886 8.08103 12.6934 8.10305C12.6984 8.12493 12.7116 8.14477 12.7329 8.16258C12.7507 8.17749 12.7702 8.18757 12.7912 8.1928C12.8122 8.19772 12.8335 8.19935 12.855 8.19772C12.8763 8.1959 12.8968 8.19249 12.9165 8.18746C12.936 8.18225 12.9534 8.177 12.9686 8.17171L13.0524 8.14307C13.0738 8.13563 13.0988 8.12838 13.1274 8.12131C13.1563 8.11411 13.1871 8.10999 13.2199 8.10896C13.2527 8.10761 13.2861 8.11178 13.32 8.12147C13.354 8.13117 13.3866 8.1491 13.4179 8.17528C13.454 8.20546 13.4775 8.23884 13.4884 8.27544C13.4995 8.3119 13.4962 8.349 13.4785 8.38671C13.4611 8.42429 13.4275 8.45969 13.378 8.4929C13.3318 8.52385 13.284 8.54421 13.2348 8.55396C13.1857 8.56356 13.1377 8.5633 13.0908 8.55316C13.044 8.54288 13.0011 8.52332 12.962 8.49447L13.0427 8.44043C13.07 8.4601 13.0991 8.47207 13.1299 8.47631C13.1607 8.48024 13.1912 8.47818 13.2213 8.47013C13.2514 8.46176 13.2793 8.44898 13.3049 8.43182C13.3347 8.41184 13.3565 8.38971 13.3702 8.36545C13.3837 8.34101 13.3884 8.3166 13.3842 8.29222C13.3798 8.26766 13.3654 8.24521 13.341 8.22485C13.3188 8.2063 13.2948 8.19523 13.2689 8.19162C13.243 8.188 13.2159 8.18911 13.1877 8.19492C13.1594 8.20073 13.1307 8.20851 13.1015 8.21825L12.9986 8.25182C12.9332 8.27305 12.8719 8.28188 12.8146 8.27831C12.7574 8.27475 12.7062 8.25415 12.6612 8.21652C12.6238 8.18525 12.6009 8.15144 12.5926 8.11508C12.5843 8.0784 12.589 8.0425 12.6067 8.00736C12.6245 7.97189 12.6539 7.94038 12.6951 7.91279C12.7366 7.88493 12.7813 7.86662 12.8291 7.85786C12.8767 7.84891 12.9232 7.8492 12.9687 7.85871C13.0143 7.86807 13.0545 7.8865 13.0893 7.91398L13.0137 7.96463ZM13.7278 8.24082L13.0595 7.68239L13.1376 7.63004L13.4352 7.87872L13.7793 7.64822L13.4817 7.39954L13.5598 7.3472L14.2281 7.90563L14.15 7.95797L13.8511 7.70821L13.507 7.9387L13.806 8.18847L13.7278 8.24082ZM14.3846 7.80083L13.7162 7.2424L14.1056 6.98152L14.1775 7.04148L13.8661 7.25003L14.092 7.43873L14.3831 7.24368L14.4549 7.30368L14.1638 7.49872L14.3909 7.68849L14.7072 7.47654L14.779 7.53655L14.3846 7.80083ZM14.9147 7.44561L14.2465 6.88713L14.6358 6.62626L14.7076 6.68626L14.3964 6.89479L14.6222 7.08349L14.9133 6.88843L14.9851 6.94843L14.694 7.14345L14.9211 7.33327L15.2374 7.12134L15.3093 7.1813L14.9147 7.44561ZM14.8132 6.61553L14.7414 6.55553L15.2253 6.23134L15.2971 6.29134L15.0942 6.42726L15.6908 6.92569L15.6127 6.97803L15.0161 6.4796L14.8132 6.61553Z" fill="white"/>
    <defs>
        <filter id="filter0_i_82_81" x="4.6582" y="3.28194" width="20.9053" height="19.4443" filterUnits="userSpaceOnUse" color-interpolation-filters="sRGB">
            <feFlood flood-opacity="0" result="BackgroundImageFix"/>
            <feBlend mode="normal" in="SourceGraphic" in2="BackgroundImageFix" result="shape"/>
            <feColorMatrix in="SourceAlpha" type="matrix" values="0 0 0 0 0 0 0 0 0 0 0 0 0 0 0 0 0 0 127 0" result="hardAlpha"/>
            <feOffset dy="4"/>
            <feGaussianBlur stdDeviation="2"/>
            <feComposite in2="hardAlpha" operator="arithmetic" k2="-1" k3="1"/>
            <feColorMatrix type="matrix" values="0 0 0 0 0 0 0 0 0 0 0 0 0 0 0 0 0 0 0.25 0"/>
            <feBlend mode="normal" in2="shape" result="effect1_innerShadow_82_81"/>
        </filter>
        <filter id="filter1_i_82_81" x="4.43848" y="4.30936" width="20.2227" height="18.6462" filterUnits="userSpaceOnUse" color-interpolation-filters="sRGB">
            <feFlood flood-opacity="0" result="BackgroundImageFix"/>
            <feBlend mode="normal" in="SourceGraphic" in2="BackgroundImageFix" result="shape"/>
            <feColorMatrix in="SourceAlpha" type="matrix" values="0 0 0 0 0 0 0 0 0 0 0 0 0 0 0 0 0 0 127 0" result="hardAlpha"/>
            <feOffset dy="4"/>
            <feGaussianBlur stdDeviation="2"/>
            <feComposite in2="hardAlpha" operator="arithmetic" k2="-1" k3="1"/>
            <feColorMatrix type="matrix" values="0 0 0 0 0 0 0 0 0 0 0 0 0 0 0 0 0 0 0.25 0"/>
            <feBlend mode="normal" in2="shape" result="effect1_innerShadow_82_81"/>
        </filter>
        <filter id="filter2_i_82_81" x="4.27393" y="3.66474" width="19.3604" height="17.5632" filterUnits="userSpaceOnUse" color-interpolation-filters="sRGB">
            <feFlood flood-opacity="0" result="BackgroundImageFix"/>
            <feBlend mode="normal" in="SourceGraphic" in2="BackgroundImageFix" result="shape"/>
            <feColorMatrix in="SourceAlpha" type="matrix" values="0 0 0 0 0 0 0 0 0 0 0 0 0 0 0 0 0 0 127 0" result="hardAlpha"/>
            <feOffset dy="4"/>
            <feGaussianBlur stdDeviation="2"/>
            <feComposite in2="hardAlpha" operator="arithmetic" k2="-1" k3="1"/>
            <feColorMatrix type="matrix" values="0 0 0 0 0 0 0 0 0 0 0 0 0 0 0 0 0 0 0.25 0"/>
            <feBlend mode="normal" in2="shape" result="effect1_innerShadow_82_81"/>
        </filter>
        <filter id="filter3_i_82_81" x="4.3457" y="3.281" width="9.68066" height="6.83514" filterUnits="userSpaceOnUse" color-interpolation-filters="sRGB">
            <feFlood flood-opacity="0" result="BackgroundImageFix"/>
            <feBlend mode="normal" in="SourceGraphic" in2="BackgroundImageFix" result="shape"/>
            <feColorMatrix in="SourceAlpha" type="matrix" values="0 0 0 0 0 0 0 0 0 0 0 0 0 0 0 0 0 0 127 0" result="hardAlpha"/>
            <feOffset dx="-1" dy="-1"/>
            <feGaussianBlur stdDeviation="1"/>
            <feComposite in2="hardAlpha" operator="arithmetic" k2="-1" k3="1"/>
            <feColorMatrix type="matrix" values="0 0 0 0 0 0 0 0 0 0 0 0 0 0 0 0 0 0 0.25 0"/>
            <feBlend mode="normal" in2="shape" result="effect1_innerShadow_82_81"/>
        </filter>
    </defs>
</svg>
